<svg id="visual" viewBox="0 0 900 600" width="900" height="600" xmlns="http://www.w3.org/2000/svg" xmlns:xlink="http://www.w3.org/1999/xlink" version="1.1"><path d="M810 600L812.8 593.3C815.7 586.7 821.3 573.3 823.2 560C825 546.7 823 533.3 827.7 520C832.3 506.7 843.7 493.3 841.2 480C838.7 466.7 822.3 453.3 815.7 440C809 426.7 812 413.3 816 400C820 386.7 825 373.3 833 360C841 346.7 852 333.3 846.2 320C840.3 306.7 817.7 293.3 800.8 280C784 266.7 773 253.3 767.8 240C762.7 226.7 763.3 213.3 763.7 200C764 186.7 764 173.3 778.2 160C792.3 146.7 820.7 133.3 831.3 120C842 106.7 835 93.3 831 80C827 66.7 826 53.3 826.5 40C827 26.7 829 13.3 830 6.7L831 0L900 0L900 6.7C900 13.3 900 26.7 900 40C900 53.3 900 66.7 900 80C900 93.3 900 106.7 900 120C900 133.3 900 146.7 900 160C900 173.3 900 186.7 900 200C900 213.3 900 226.7 900 240C900 253.3 900 266.7 900 280C900 293.3 900 306.7 900 320C900 333.3 900 346.7 900 360C900 373.3 900 386.7 900 400C900 413.3 900 426.7 900 440C900 453.3 900 466.7 900 480C900 493.3 900 506.7 900 520C900 533.3 900 546.7 900 560C900 573.3 900 586.7 900 593.3L900 600Z" fill="#ce507c" stroke-linecap="round" stroke-linejoin="miter"></path></svg>