<svg id="visual" viewBox="0 0 900 600" width="900" height="600" xmlns="http://www.w3.org/2000/svg" xmlns:xlink="http://www.w3.org/1999/xlink" version="1.1"><path d="M126 0L117.2 6.7C108.3 13.3 90.7 26.7 87 40C83.3 53.3 93.7 66.7 91.2 80C88.7 93.3 73.3 106.7 67.2 120C61 133.3 64 146.7 69.8 160C75.7 173.3 84.3 186.7 87 200C89.7 213.3 86.3 226.7 88.2 240C90 253.3 97 266.7 104.8 280C112.7 293.3 121.3 306.7 121.2 320C121 333.3 112 346.7 112 360C112 373.3 121 386.7 118 400C115 413.3 100 426.7 96.3 440C92.7 453.3 100.3 466.7 96.2 480C92 493.3 76 506.7 62.8 520C49.7 533.3 39.3 546.7 43.3 560C47.3 573.3 65.7 586.7 74.8 593.3L84 600L0 600L0 593.3C0 586.7 0 573.3 0 560C0 546.7 0 533.3 0 520C0 506.7 0 493.3 0 480C0 466.7 0 453.3 0 440C0 426.7 0 413.3 0 400C0 386.7 0 373.3 0 360C0 346.7 0 333.3 0 320C0 306.7 0 293.3 0 280C0 266.7 0 253.3 0 240C0 226.7 0 213.3 0 200C0 186.7 0 173.3 0 160C0 146.7 0 133.3 0 120C0 106.7 0 93.3 0 80C0 66.7 0 53.3 0 40C0 26.7 0 13.3 0 6.7L0 0Z" fill="#ce507c" stroke-linecap="round" stroke-linejoin="miter"></path></svg>